Coordinates
version=1
nRows=19
nColumns=63
inDegrees=yes

Units are S.I. units (second, meters, Newtons, ...)
If the header above contains a line with 'inDegrees', this indicates whether rotational values are in degrees (yes) or radians (no).

endheader
time	pelvis_tilt	pelvis_list	pelvis_rotation	pelvis_tx	pelvis_ty	pelvis_tz	hip_flexion_r	hip_adduction_r	hip_rotation_r	knee_angle_r	knee_angle_r_beta	ankle_angle_r	subtalar_angle_r	mtp_angle_r	hip_flexion_l	hip_adduction_l	hip_rotation_l	knee_angle_l	knee_angle_l_beta	ankle_angle_l	subtalar_angle_l	mtp_angle_l	L5_S1_Flex_Ext	L5_S1_Lat_Bending	L5_S1_axial_rotation	L4_L5_Flex_Ext	L4_L5_Lat_Bending	L4_L5_axial_rotation	L3_L4_Flex_Ext	L3_L4_Lat_Bending	L3_L4_axial_rotation	L2_L3_Flex_Ext	L2_L3_Lat_Bending	L2_L3_axial_rotation	L1_L2_Flex_Ext	L1_L2_Lat_Bending	L1_L2_axial_rotation	L1_T12_Flex_Ext	L1_T12_Lat_Bending	L1_T12_axial_rotation	Abs_r3	Abs_r2	Abs_r1	Abs_t1	Abs_t2	neck_flexion	neck_bending	neck_rotation	arm_flex_r	arm_add_r	arm_rot_r	elbow_flex_r	pro_sup_r	wrist_flex_r	wrist_dev_r	arm_flex_l	arm_add_l	arm_rot_l	elbow_flex_l	pro_sup_l	wrist_flex_l	wrist_dev_l
1.711864	-2.085047	-6.827447	96.752534	0.191885	0.862572	0.827435	0.520916	-4.361622	-12.418260	10.137485	0.176932	22.847028	13.198931	0.000000	2.123208	0.909257	4.728498	7.072242	0.123434	27.037604	-0.458612	0.000000	-0.264242	-0.141097	0.459421	-0.490724	-0.187659	0.488135	-0.434123	-0.343063	0.488135	-0.302002	-0.343063	0.401994	-0.245375	-0.287724	0.373280	-0.150988	-0.218559	0.344566	-1.887455	-1.596115	2.555164	0.000000	0.000000	12.137276	5.468911	-1.735161	-85.254164	-78.618465	-23.627057	11.410614	4.904905	-5.147615	2.241041	-201.225558	-83.764395	-112.759692	11.621639	10.380630	-13.290235	3.653846
1.728814	-2.000398	-6.828406	96.742938	0.191796	0.862568	0.827376	0.533354	-4.276475	-12.386432	10.123445	0.176687	22.803983	13.184853	0.000000	2.134372	0.808406	4.514366	7.054504	0.123124	27.133590	-0.191203	0.000000	-0.264968	-0.134370	0.454051	-0.492072	-0.178712	0.482430	-0.435316	-0.326707	0.482430	-0.302832	-0.326707	0.397295	-0.246049	-0.274007	0.368917	-0.151403	-0.208139	0.340539	-1.892639	-1.520019	2.525298	0.000000	0.000000	12.194634	5.578443	-1.779768	-85.376955	-78.784937	-23.645375	11.410950	4.861740	-5.014346	2.079388	-201.462399	-83.629064	-111.591806	11.792741	9.929695	-13.422766	3.721735
1.745763	-1.907075	-6.837877	96.744799	0.191688	0.862532	0.827370	0.556756	-4.182539	-12.356539	10.110499	0.176462	22.759965	13.171267	0.000000	2.158619	0.699568	4.322098	7.045644	0.122970	27.236303	0.075825	0.000000	-0.266430	-0.126437	0.455504	-0.494787	-0.168162	0.483973	-0.437718	-0.307420	0.483973	-0.304503	-0.307420	0.398566	-0.247407	-0.257831	0.370097	-0.152238	-0.195851	0.341628	-1.903082	-1.430285	2.533379	0.000000	0.000000	12.280605	5.677281	-1.843074	-85.595528	-78.920458	-23.724992	11.392386	4.884290	-4.869670	1.978189	-202.026532	-83.507536	-111.001747	11.929174	9.576872	-13.535363	3.756376
1.762712	-1.814246	-6.852423	96.749978	0.191628	0.862467	0.827402	0.591387	-4.088247	-12.331892	10.109129	0.176438	22.721287	13.186117	0.000000	2.183704	0.596327	4.283128	7.034959	0.122783	27.303554	0.150825	0.000000	-0.269352	-0.119729	0.461212	-0.500214	-0.159239	0.490038	-0.442519	-0.291109	0.490038	-0.307843	-0.291109	0.403561	-0.250120	-0.244151	0.374735	-0.153908	-0.185460	0.345909	-1.923956	-1.354396	2.565123	0.000000	0.000000	12.399847	5.796504	-1.927587	-85.719849	-79.061957	-23.555483	11.326099	4.886319	-4.713676	1.905113	-202.655694	-83.361766	-110.424639	12.078587	8.926180	-13.612640	3.726028
1.779661	-1.704147	-6.880660	96.783409	0.191518	0.862369	0.827500	0.645007	-3.984044	-12.382038	10.117292	0.176580	22.680997	13.274777	0.000000	2.234105	0.482213	4.339473	7.043820	0.122938	27.368737	0.153066	0.000000	-0.272161	-0.110293	0.467451	-0.505430	-0.146690	0.496667	-0.447133	-0.268167	0.496667	-0.311053	-0.268167	0.409019	-0.252729	-0.224910	0.379804	-0.155513	-0.170844	0.350588	-1.944018	-1.247661	2.599821	0.000000	0.000000	12.559416	5.900745	-2.007550	-86.065192	-79.201851	-23.430564	11.252460	4.831564	-4.551638	1.846235	-203.283226	-83.260222	-110.261940	12.197968	8.359004	-13.645323	3.659075
1.796610	-1.589490	-6.912275	96.787329	0.191460	0.862253	0.827612	0.709052	-3.870097	-12.351797	10.127258	0.176754	22.628938	13.307325	0.000000	2.278887	0.363425	4.422330	7.048895	0.123026	27.421177	0.097594	0.000000	-0.275662	-0.100218	0.482100	-0.511931	-0.133290	0.512231	-0.452884	-0.243670	0.512231	-0.315054	-0.243670	0.421837	-0.255979	-0.204364	0.391706	-0.157513	-0.155238	0.361575	-1.969023	-1.133685	2.681295	0.000000	0.000000	12.737569	6.003493	-2.080801	-86.468206	-79.339800	-23.422047	11.173257	4.889075	-4.416180	1.802873	-203.759278	-83.195903	-110.301482	12.278012	7.881291	-13.637861	3.567224
1.813559	-1.467210	-6.948198	96.807268	0.191387	0.862126	0.827738	0.777255	-3.752881	-12.380903	10.141405	0.177001	22.575426	13.398687	0.000000	2.331196	0.239225	4.555843	7.065598	0.123318	27.468209	0.013106	0.000000	-0.279194	-0.088859	0.494624	-0.518492	-0.118183	0.525538	-0.458689	-0.216053	0.525538	-0.319091	-0.216053	0.432796	-0.259260	-0.181202	0.401882	-0.159532	-0.137643	0.370968	-1.994258	-1.005195	2.750952	0.000000	0.000000	12.930401	6.109981	-2.138307	-87.002994	-79.494017	-23.486283	11.089493	4.980097	-4.305083	1.755484	-203.919173	-83.177476	-110.401909	12.325021	7.473520	-13.581185	3.441619
1.830508	-1.335710	-6.986141	96.827188	0.191303	0.861997	0.827872	0.850241	-3.630844	-12.450021	10.160021	0.177326	22.520075	13.531858	0.000000	2.389439	0.106346	4.680582	7.094123	0.123816	27.519889	-0.052307	0.000000	-0.282545	-0.075472	0.508661	-0.524715	-0.100378	0.540452	-0.464194	-0.183502	0.540452	-0.322921	-0.183502	0.445078	-0.262372	-0.153902	0.413287	-0.161446	-0.116906	0.381495	-2.018194	-0.853753	2.829018	0.000000	0.000000	13.127463	6.200144	-2.177351	-87.690128	-79.656228	-23.608310	11.003118	5.082080	-4.220578	1.697000	-203.748802	-83.223204	-110.788173	12.335832	7.303814	-13.479152	3.306393
1.847458	-1.209357	-7.024967	96.851038	0.191222	0.861874	0.827989	0.921115	-3.513852	-12.528280	10.177299	0.177627	22.459571	13.649572	0.000000	2.442638	-0.014520	4.910730	7.115568	0.124190	27.532195	-0.257362	0.000000	-0.285483	-0.062279	0.520600	-0.530170	-0.082831	0.553138	-0.469020	-0.151426	0.553138	-0.326278	-0.151426	0.455525	-0.265099	-0.127000	0.422988	-0.163125	-0.096471	0.390450	-2.039176	-0.704516	2.895421	0.000000	0.000000	13.316264	6.298124	-2.191045	-88.401105	-79.839604	-23.638202	10.895600	5.153057	-4.158224	1.630399	-203.297468	-83.299058	-111.139879	12.320272	7.208266	-13.337171	3.179692
1.864407	-1.084868	-7.059162	96.875147	0.191131	0.861766	0.828084	0.984700	-3.400624	-12.632745	10.193031	0.177902	22.396168	13.778303	0.000000	2.491529	-0.134120	5.105857	7.138185	0.124585	27.550167	-0.420498	0.000000	-0.288352	-0.048095	0.531238	-0.535499	-0.063966	0.564440	-0.473734	-0.116938	0.564440	-0.329558	-0.116938	0.464833	-0.267764	-0.098076	0.431631	-0.164765	-0.074499	0.398428	-2.059672	-0.544061	2.954585	0.000000	0.000000	13.491970	6.368922	-2.173528	-89.215482	-80.030598	-23.747992	10.795325	5.225402	-4.119201	1.546461	-202.543166	-83.420381	-111.592026	12.282369	7.360281	-13.173992	3.075632
1.881356	-0.979174	-7.086712	96.891016	0.191060	0.861682	0.828133	1.036838	-3.304435	-12.723116	10.207095	0.178147	22.329733	13.876422	0.000000	2.520411	-0.228413	5.386019	7.138803	0.124596	27.527853	-0.729540	0.000000	-0.291246	-0.035551	0.542575	-0.540874	-0.047283	0.576486	-0.478489	-0.086439	0.576486	-0.332866	-0.086439	0.474753	-0.270451	-0.072496	0.440842	-0.166418	-0.055069	0.406932	-2.080344	-0.402163	3.017641	0.000000	0.000000	13.647929	6.413144	-2.147938	-90.000604	-80.221126	-23.795810	10.683888	5.263257	-4.093707	1.424925	-201.767953	-83.545527	-112.052880	12.242461	7.490635	-13.008792	2.981771
1.898305	-0.893835	-7.106805	96.906309	0.191000	0.861624	0.828130	1.074516	-3.228436	-12.828151	10.218791	0.178352	22.263073	13.977237	0.000000	2.543853	-0.309166	5.522417	7.144611	0.124697	27.544155	-0.859826	0.000000	-0.293675	-0.024682	0.552736	-0.545383	-0.032827	0.587282	-0.482478	-0.060012	0.587282	-0.335641	-0.060012	0.483644	-0.272706	-0.050332	0.449098	-0.167806	-0.038233	0.414552	-2.097689	-0.279209	3.074150	0.000000	0.000000	13.770346	6.411423	-2.102809	-90.753937	-80.408543	-23.815725	10.563957	5.297236	-4.097925	1.253342	-200.926709	-83.678436	-112.516437	12.197470	7.663747	-12.840720	2.903066
1.915254	-0.829523	-7.115820	96.926106	0.190938	0.861593	0.828050	1.085906	-3.171384	-12.946211	10.216057	0.178304	22.195310	14.086720	0.000000	2.548445	-0.369124	5.623393	7.137188	0.124567	27.563443	-0.960900	0.000000	-0.295388	-0.015653	0.559637	-0.548566	-0.020819	0.594615	-0.485293	-0.038059	0.594615	-0.337599	-0.038059	0.489683	-0.274298	-0.031920	0.454705	-0.168785	-0.024247	0.419728	-2.109929	-0.177072	3.112535	0.000000	0.000000	13.855862	6.359580	-2.052379	-91.518090	-80.589907	-23.878189	10.463325	5.317333	-4.127278	1.025994	-200.083183	-83.811493	-112.832947	12.151443	7.826296	-12.707263	2.823570
1.932203	-0.793874	-7.108284	96.937410	0.190892	0.861604	0.827882	1.068297	-3.138136	-13.032961	10.204021	0.178094	22.120138	14.158535	0.000000	2.527685	-0.404324	5.626687	7.120315	0.124273	27.600375	-0.961462	0.000000	-0.296967	-0.009664	0.566332	-0.551497	-0.012853	0.601727	-0.487887	-0.023497	0.601727	-0.339404	-0.023497	0.495540	-0.275764	-0.019707	0.460144	-0.169687	-0.014970	0.424749	-2.121205	-0.109322	3.149767	0.000000	0.000000	13.892326	6.253214	-2.015880	-92.173793	-80.736358	-24.080310	10.389007	5.397691	-4.184045	0.754446	-199.060025	-83.960567	-113.149308	12.078268	8.236203	-12.586009	2.740493
1.949153	-0.776054	-7.082653	96.952854	0.190802	0.861645	0.827621	1.014832	-3.121228	-13.117337	10.175613	0.177598	22.037365	14.225280	0.000000	2.482865	-0.426159	5.496441	7.099136	0.123903	27.673958	-0.790555	0.000000	-0.297998	-0.004752	0.571914	-0.553413	-0.006321	0.607658	-0.489582	-0.011555	0.607658	-0.340582	-0.011555	0.500424	-0.276721	-0.009691	0.464680	-0.170276	-0.007362	0.428935	-2.128573	-0.053761	3.180812	0.000000	0.000000	13.882034	6.075958	-1.989478	-92.856531	-80.842975	-24.409935	10.350314	5.465688	-4.245999	0.453866	-198.045613	-84.123715	-113.507445	11.992725	8.746916	-12.486188	2.612065
1.966102	-0.785212	-7.033998	96.959170	0.190702	0.861722	0.827244	0.921583	-3.126179	-13.164856	10.133878	0.176870	21.954349	14.254203	0.000000	2.397033	-0.419622	5.367950	7.058286	0.123190	27.735829	-0.644134	0.000000	-0.299191	-0.003082	0.578955	-0.555628	-0.004100	0.615140	-0.491541	-0.007494	0.615140	-0.341945	-0.007494	0.506586	-0.277829	-0.006286	0.470401	-0.170958	-0.004775	0.434216	-2.137092	-0.034868	3.219975	0.000000	0.000000	13.827531	5.864911	-2.003855	-93.392985	-80.913476	-24.565734	10.310293	5.492511	-4.310608	0.138344	-197.128936	-84.264908	-113.746350	11.905652	9.198434	-12.422035	2.427542
1.983051	-0.825083	-6.961844	96.953006	0.190579	0.861837	0.826731	0.784604	-3.157265	-13.165730	10.074610	0.175835	21.872998	14.245045	0.000000	2.263548	-0.379876	5.236764	6.990546	0.122008	27.778197	-0.529879	0.000000	-0.300278	-0.005140	0.587415	-0.557646	-0.006836	0.624129	-0.493327	-0.012497	0.624129	-0.343188	-0.012497	0.513989	-0.278838	-0.010481	0.477275	-0.171579	-0.007961	0.440562	-2.144856	-0.058141	3.267029	0.000000	0.000000	13.709427	5.615488	-2.045671	-93.759012	-80.941121	-24.606019	10.284872	5.484196	-4.381241	-0.151794	-196.257972	-84.389359	-113.858053	11.808740	9.629266	-12.384506	2.197799
2.000000	-0.885855	-6.868065	96.921946	0.190435	0.861981	0.826091	0.611337	-3.207386	-13.119382	10.001493	0.174559	21.797977	14.225830	0.000000	2.085016	-0.319405	5.074625	6.897025	0.120376	27.824664	-0.386496	0.000000	-0.302002	-0.009963	0.601405	-0.560847	-0.013251	0.638992	-0.496158	-0.024224	0.638992	-0.345158	-0.024224	0.526229	-0.280439	-0.020317	0.488641	-0.172564	-0.015433	0.451054	-2.157167	-0.112705	3.344832	0.000000	0.000000	13.575014	5.379430	-2.148706	-93.895886	-80.908243	-24.617907	10.264326	5.522070	-4.436534	-0.360048	-195.399464	-84.501881	-113.975516	11.705476	10.168464	-12.364167	1.910545
2.016949	-0.948007	-6.750297	96.870329	0.190240	0.862150	0.825323	0.399544	-3.257140	-13.036077	9.911150	0.172982	21.727593	14.208304	0.000000	1.861207	-0.253747	4.906969	6.778930	0.118315	27.873027	-0.273351	0.000000	-0.304601	-0.014236	0.620001	-0.565675	-0.018934	0.658751	-0.500430	-0.034613	0.658751	-0.348129	-0.034613	0.542501	-0.282853	-0.029030	0.503751	-0.174049	-0.022052	0.465001	-2.175738	-0.161040	3.448261	0.000000	0.000000	13.407396	5.135554	-2.263269	-94.034130	-80.840031	-24.599639	10.263480	5.499145	-4.453776	-0.474358	-194.392877	-84.637341	-114.100698	11.587642	10.622669	-12.316603	1.514459
